<svg xmlns="http://www.w3.org/2000/svg" version="1.1" xmlns:xlink="http://www.w3.org/1999/xlink" xmlns:svgjs="http://svgjs.dev/svgjs" width="1440" height="560" preserveAspectRatio="none" viewBox="0 0 1440 560"><g mask="url(&quot;#SvgjsMask1822&quot;)" fill="none"><rect width="1440" height="560" x="0" y="0" fill="url(&quot;#SvgjsLinearGradient1823&quot;)"></rect><path d="M1440 0L1202.84 0L1440 3.07z" fill="rgba(255, 255, 255, .1)"></path><path d="M1202.84 0L1440 3.07L1440 298.64L1000.68 0z" fill="rgba(255, 255, 255, .075)"></path><path d="M1000.6800000000001 0L1440 298.64L1440 299.45L943.6700000000001 0z" fill="rgba(255, 255, 255, .05)"></path><path d="M943.6700000000001 0L1440 299.45L1440 302.96L614.5400000000001 0z" fill="rgba(255, 255, 255, .025)"></path><path d="M0 560L599.8 560L0 465.3z" fill="rgba(0, 0, 0, .1)"></path><path d="M0 465.3L599.8 560L688.4699999999999 560L0 432.61z" fill="rgba(0, 0, 0, .075)"></path><path d="M0 432.61L688.4699999999999 560L1094.37 560L0 215.9z" fill="rgba(0, 0, 0, .05)"></path><path d="M0 215.89999999999998L1094.37 560L1329.1399999999999 560L0 119.63999999999997z" fill="rgba(0, 0, 0, .025)"></path></g><defs><mask id="SvgjsMask1822"><rect width="1440" height="560" fill="#ffffff"></rect></mask><linearGradient x1="15.28%" y1="-39.29%" x2="84.72%" y2="139.29%" gradientUnits="userSpaceOnUse" id="SvgjsLinearGradient1823"><stop stop-color="rgba(190, 0, 67, 1)" offset="0"></stop><stop stop-color="rgba(255, 84, 37, 1)" offset="1"></stop></linearGradient></defs></svg>