<svg width="540" height="451" viewBox="0 0 540 451" fill="none" xmlns="http://www.w3.org/2000/svg">
<g clip-path="url(#clip0_0_3)">
<path d="M540 366.875H0V369.197H540V366.875Z" fill="#AF144B"/>
<path d="M362.276 366.999H116.513C113.978 366.999 111.916 364.939 111.916 362.407V13.8009C111.916 11.269 113.978 9.20938 116.513 9.20938H362.276C364.81 9.20938 366.872 11.269 366.872 13.8009V362.407C366.872 364.939 364.81 366.999 362.276 366.999V366.999ZM116.513 10.9491C114.938 10.9491 113.658 12.2285 113.658 13.8009V362.407C113.658 363.98 114.939 365.259 116.513 365.259H362.276C363.85 365.259 365.13 363.98 365.13 362.407V13.8009C365.13 12.2285 363.85 10.9491 362.276 10.9491H116.513V10.9491ZM352.516 357.287H127.803C125.268 357.287 123.207 355.227 123.207 352.696V23.7681C123.207 21.2362 125.268 19.1766 127.803 19.1766H352.516C355.051 19.1766 357.113 21.2362 357.113 23.7681V352.696C357.113 355.227 355.051 357.287 352.516 357.287V357.287ZM127.803 20.9163C126.229 20.9163 124.948 22.1957 124.948 23.7681V352.696C124.948 354.268 126.229 355.547 127.803 355.547H352.516C354.09 355.547 355.371 354.268 355.371 352.696V23.7681C355.371 22.1955 354.09 20.9163 352.516 20.9163H127.803V20.9163Z" fill="#D0021B"/>
<path d="M352.516 357.287H127.803C125.268 357.287 123.207 355.227 123.207 352.696V23.7681C123.207 21.2362 125.268 19.1766 127.803 19.1766H352.516C355.051 19.1766 357.113 21.2362 357.113 23.7681V352.696C357.113 355.227 355.051 357.287 352.516 357.287V357.287ZM127.803 20.9163C126.229 20.9163 124.948 22.1957 124.948 23.7681V352.696C124.948 354.268 126.229 355.547 127.803 355.547H352.516C354.09 355.547 355.371 354.268 355.371 352.696V23.7681C355.371 22.1955 354.09 20.9163 352.516 20.9163H127.803V20.9163Z" fill="#FF8600"/>
<path d="M352.516 357.287H127.803C125.268 357.287 123.207 355.227 123.207 352.696V23.7681C123.207 21.2362 125.268 19.1766 127.803 19.1766H352.516C355.051 19.1766 357.113 21.2362 357.113 23.7681V352.696C357.113 355.227 355.051 357.287 352.516 357.287V357.287ZM127.803 20.9163C126.229 20.9163 124.948 22.1957 124.948 23.7681V352.696C124.948 354.268 126.229 355.547 127.803 355.547H352.516C354.09 355.547 355.371 354.268 355.371 352.696V23.7681C355.371 22.1955 354.09 20.9163 352.516 20.9163H127.803V20.9163Z" fill="#D0021B"/>
<path d="M392.92 0.86986H205.935C193.238 0.86986 182.945 11.1513 182.945 23.8342V114.734C182.945 127.417 193.238 137.698 205.935 137.698H392.92C405.616 137.698 415.909 127.417 415.909 114.734V23.8342C415.909 11.1513 405.616 0.86986 392.92 0.86986Z" fill="white"/>
<path d="M392.92 138.568H205.935C192.778 138.568 182.075 127.876 182.075 114.734V23.8342C182.075 10.692 192.778 0 205.935 0H392.92C406.076 0 416.78 10.692 416.78 23.8342V114.734C416.78 127.876 406.076 138.568 392.92 138.568ZM205.935 1.73972C193.738 1.73972 183.816 11.6513 183.816 23.8342V114.734C183.816 126.917 193.738 136.828 205.935 136.828H392.92C405.116 136.828 415.038 126.917 415.038 114.734V23.8342C415.038 11.6513 405.116 1.73972 392.92 1.73972H205.935Z" fill="#AF144B"/>
<path d="M336.326 119.17H267.933C262.89 119.17 258.787 115.071 258.787 110.034V53.3777C258.787 48.3402 262.89 44.2418 267.933 44.2418H336.326C341.369 44.2418 345.472 48.3402 345.472 53.3777V110.034C345.472 115.071 341.369 119.17 336.326 119.17ZM267.933 45.4598C263.562 45.4598 260.006 49.0117 260.006 53.3779V110.034C260.006 114.4 263.562 117.952 267.933 117.952H336.326C340.697 117.952 344.253 114.4 344.253 110.034V53.3777C344.253 49.0117 340.697 45.4596 336.326 45.4596H267.933V45.4598Z" fill="#AF144B"/>
<path d="M329.462 45.4598H277.987L278.064 44.7823C279.703 30.3111 290.735 19.3984 303.725 19.3984C316.715 19.3984 327.746 30.3111 329.385 44.7823L329.462 45.4598H329.462ZM279.36 44.242H328.09C326.26 30.7252 315.892 20.6164 303.725 20.6164C291.558 20.6164 281.189 30.7252 279.36 44.242H279.36Z" fill="#AF144B"/>
<path d="M197.473 270.381C228.421 270.381 253.509 245.32 253.509 214.405C253.509 183.491 228.421 158.43 197.473 158.43C166.526 158.43 141.437 183.491 141.437 214.405C141.437 245.32 166.526 270.381 197.473 270.381Z" fill="white"/>
<path d="M197.473 271.163C182.296 271.163 168.028 265.259 157.296 254.539C146.564 243.819 140.654 229.566 140.654 214.405C140.654 199.245 146.564 184.991 157.296 174.271C168.028 163.551 182.296 157.647 197.473 157.647C212.65 157.647 226.919 163.551 237.651 174.271C248.383 184.991 254.293 199.245 254.293 214.405C254.293 229.566 248.382 243.819 237.651 254.539C226.919 265.259 212.65 271.163 197.473 271.163ZM197.473 159.213C167.007 159.213 142.221 183.972 142.221 214.405C142.221 244.838 167.007 269.598 197.473 269.598C227.939 269.598 252.725 244.838 252.725 214.405C252.725 183.972 227.939 159.213 197.473 159.213Z" fill="#AF144B"/>
<path d="M189.251 240.153C188.129 240.153 187.076 239.719 186.287 238.93C186.103 238.748 185.936 238.547 185.789 238.33C185.619 238.191 185.459 238.039 185.313 237.876L165.359 215.531C164.615 214.699 164.241 213.625 164.305 212.505C164.369 211.386 164.863 210.36 165.696 209.618C166.461 208.935 167.451 208.559 168.484 208.559C169.682 208.559 170.824 209.068 171.616 209.955L189.413 229.884L229.461 189.88C230.25 189.092 231.303 188.658 232.426 188.658C233.548 188.658 234.601 189.092 235.39 189.88C236.179 190.668 236.615 191.72 236.615 192.842C236.615 193.964 236.18 195.014 235.39 195.803L192.216 238.93C191.427 239.719 190.374 240.153 189.252 240.153H189.251ZM168.484 210.298C167.88 210.298 167.302 210.518 166.856 210.916C166.369 211.349 166.081 211.949 166.044 212.604C166.006 213.26 166.224 213.888 166.658 214.373L186.612 236.717C186.718 236.836 186.837 236.946 186.965 237.042L187.093 237.139L187.178 237.275C187.274 237.429 187.388 237.572 187.516 237.698C187.978 238.16 188.594 238.413 189.251 238.413C189.909 238.413 190.524 238.16 190.984 237.7L234.158 194.572C234.619 194.112 234.873 193.498 234.873 192.842C234.873 192.186 234.619 191.57 234.159 191.111C233.698 190.651 233.082 190.397 232.425 190.397C231.768 190.397 231.152 190.651 230.692 191.11L189.34 232.417L170.316 211.113C169.854 210.595 169.186 210.298 168.483 210.298L168.484 210.298Z" fill="#D0021B"/>
<path d="M384.856 245.515L299.795 378.993C297.522 382.559 298.574 387.291 302.144 389.561L395.518 448.937C399.089 451.207 403.825 450.156 406.098 446.59L491.159 313.113C493.432 309.546 492.38 304.815 488.81 302.545L395.435 243.168C391.865 240.898 387.128 241.949 384.856 245.515Z" fill="white"/>
<path d="M399.62 451C398.052 451 396.468 450.57 395.051 449.669L301.676 390.293C297.706 387.769 296.533 382.49 299.06 378.524L384.12 245.047C385.34 243.133 387.24 241.806 389.471 241.311C391.703 240.817 393.986 241.215 395.902 242.433L489.277 301.809C491.193 303.027 492.521 304.925 493.016 307.154C493.511 309.383 493.113 311.664 491.893 313.578L406.833 447.055C405.208 449.605 402.442 451 399.62 451L399.62 451ZM395.986 448.201C399.146 450.21 403.352 449.277 405.363 446.121L490.424 312.643C491.393 311.122 491.71 309.306 491.315 307.531C490.921 305.756 489.865 304.245 488.341 303.276L394.967 243.9C393.443 242.932 391.626 242.615 389.849 243.009C388.072 243.404 386.559 244.459 385.589 245.98L300.529 379.458C299.559 380.98 299.242 382.796 299.637 384.571C300.032 386.346 301.088 387.857 302.611 388.825L395.986 448.201V448.201Z" fill="#AF144B"/>
<path d="M336.349 355.352L319.665 381.532C319.046 382.505 319.332 383.795 320.306 384.414L335.471 394.057C336.444 394.677 337.736 394.39 338.356 393.417L355.04 367.237C355.66 366.264 355.373 364.974 354.399 364.355L339.235 354.712C338.261 354.092 336.969 354.379 336.349 355.352Z" fill="white"/>
<path d="M336.588 395.251C336.044 395.251 335.495 395.102 335.003 394.789L319.838 385.146C318.461 384.271 318.054 382.439 318.931 381.063L335.615 354.883C336.038 354.218 336.697 353.758 337.471 353.586C338.244 353.415 339.037 353.553 339.702 353.976L354.866 363.619C355.532 364.042 355.993 364.701 356.164 365.473C356.336 366.246 356.198 367.037 355.774 367.702L339.09 393.883C338.527 394.767 337.567 395.251 336.588 395.251V395.251ZM335.938 393.322C336.505 393.682 337.26 393.515 337.621 392.949L354.305 366.768C354.479 366.496 354.535 366.17 354.464 365.851C354.394 365.532 354.204 365.26 353.931 365.087L338.767 355.444C338.494 355.27 338.168 355.214 337.849 355.285C337.529 355.355 337.257 355.545 337.084 355.817L320.4 381.998C320.226 382.27 320.17 382.596 320.241 382.915C320.312 383.234 320.501 383.505 320.774 383.679L335.938 393.322V393.322Z" fill="#AF144B"/>
<path d="M354.68 407.823L353.307 410.018L354.649 411.163C354.714 411.019 354.774 410.884 354.907 410.672C355.183 410.229 355.558 409.848 355.992 409.626C356.531 409.335 357.26 409.273 357.987 409.727C359.112 410.429 359.395 411.849 358.614 413.097C358.221 413.725 357.711 414.146 357.362 414.31L356.89 413.744C357.182 413.594 357.652 413.235 357.979 412.713C358.439 411.978 358.353 411.051 357.582 410.57C356.833 410.114 355.991 410.278 355.271 411.429C355.066 411.756 354.941 412.035 354.835 412.264L352.302 410.167L354.025 407.414L354.68 407.823V407.823Z" fill="#D0021B"/>
<path d="M357.609 403.3L357.597 403.317L357.512 404.655L356.825 404.435L356.938 402.757L357.353 402.094L363.112 405.689L362.642 406.441L357.609 403.3L357.609 403.3Z" fill="#D0021B"/>
<path d="M362.577 395.2L361.203 397.395L362.545 398.54C362.61 398.396 362.67 398.261 362.803 398.049C363.08 397.606 363.454 397.225 363.888 397.003C364.427 396.712 365.156 396.65 365.883 397.104C367.008 397.806 367.291 399.226 366.51 400.474C366.117 401.102 365.607 401.523 365.258 401.687L364.787 401.121C365.078 400.971 365.549 400.612 365.875 400.09C366.335 399.355 366.249 398.428 365.479 397.947C364.729 397.491 363.887 397.655 363.167 398.806C362.962 399.133 362.837 399.412 362.731 399.641L360.199 397.544L361.921 394.791L362.577 395.2V395.2Z" fill="#D0021B"/>
<path d="M369.48 395.509L369.002 395.21L368.791 394.229C368.31 391.886 367.98 390.757 367.117 390.206C366.533 389.841 365.815 389.787 365.278 390.645C364.951 391.168 364.946 391.767 365.001 392.171L364.297 392.076C364.209 391.467 364.316 390.746 364.731 390.082C365.506 388.843 366.683 388.852 367.507 389.366C368.57 390.03 368.948 391.336 369.359 393.279L369.497 394.005L369.515 394.016L371.132 391.431L371.779 391.835L369.481 395.509L369.48 395.509Z" fill="#D0021B"/>
<path d="M375.01 376.074C374.902 376.228 374.783 376.437 374.68 376.681C374.12 378.029 374.61 379.234 375.476 379.959L375.492 379.932C375.3 379.431 375.298 378.765 375.697 378.128C376.334 377.11 377.518 376.852 378.643 377.554C379.698 378.213 380.224 379.538 379.476 380.733C378.706 381.963 377.246 382.171 375.748 381.237C374.614 380.529 373.974 379.563 373.761 378.642C373.59 377.871 373.696 377.051 374.062 376.27C374.171 376.018 374.283 375.818 374.372 375.676L375.01 376.074V376.074ZM378.195 378.37C377.371 377.855 376.581 378.015 376.132 378.732C375.839 379.201 375.86 379.817 376.144 380.29C376.199 380.398 376.292 380.505 376.434 380.594C377.393 381.168 378.364 381.171 378.874 380.357C379.295 379.684 379.019 378.884 378.195 378.37Z" fill="#D0021B"/>
<path d="M380.608 375.457C379.881 375.004 379.639 374.249 379.78 373.353L379.748 373.345C379.048 373.795 378.38 373.759 377.884 373.449C376.971 372.88 376.833 371.722 377.464 370.713C378.162 369.598 379.211 369.477 379.928 369.925C380.416 370.23 380.789 370.795 380.683 371.713L380.71 371.73C381.442 371.19 382.224 371.062 382.924 371.499C383.925 372.125 384.061 373.403 383.374 374.501C382.622 375.705 381.45 375.983 380.608 375.457H380.608ZM378.29 372.681C378.866 373.041 379.448 372.801 380.041 372.248C380.182 371.647 380.066 371.045 379.543 370.719C379.082 370.431 378.432 370.407 377.995 371.106C377.591 371.752 377.794 372.372 378.29 372.682V372.681ZM382.51 372.337C381.81 371.9 381.169 372.177 380.46 372.818C380.234 373.612 380.45 374.251 381 374.594C381.568 374.986 382.359 374.864 382.819 374.129C383.256 373.43 383.104 372.708 382.51 372.337V372.337Z" fill="#D0021B"/>
<path d="M382.639 362.657L383.153 362.978L386.832 368.757L386.328 369.563L382.794 363.886L382.777 363.875L381.016 366.69L380.369 366.286L382.639 362.657L382.639 362.657Z" fill="#D0021B"/>
<path d="M389.232 362.932C389.512 362.799 390.055 362.424 390.393 361.884C391.018 360.883 390.574 360.175 390.09 359.886C389.278 359.391 388.478 359.901 388.008 360.654L387.737 361.087L387.152 360.722L387.423 360.289C387.777 359.722 387.933 358.822 387.251 358.397C386.791 358.109 386.2 358.147 385.752 358.864C385.464 359.324 385.39 359.894 385.413 360.252L384.718 360.102C384.685 359.663 384.829 358.94 385.217 358.32C385.925 357.188 386.92 357.094 387.62 357.531C388.214 357.902 388.497 358.571 388.311 359.44L388.329 359.451C388.914 358.831 389.806 358.588 390.612 359.091C391.533 359.666 391.891 360.887 391.028 362.268C390.624 362.914 390.065 363.353 389.702 363.52L389.232 362.932L389.232 362.932Z" fill="#D0021B"/>
<path d="M405.935 338.914C406.058 338.757 406.163 338.551 406.302 338.269C406.522 337.779 406.602 337.238 406.497 336.717C406.389 336.12 406.056 335.531 405.44 334.999L405.423 335.025C405.614 335.587 405.556 336.191 405.196 336.767C404.548 337.802 403.353 337.979 402.37 337.365C401.28 336.685 400.816 335.3 401.552 334.123C402.289 332.945 403.7 332.817 405.171 333.735C406.438 334.526 407.058 335.504 407.253 336.413C407.411 337.127 407.294 337.904 406.977 338.567C406.845 338.879 406.698 339.132 406.573 339.312L405.935 338.914V338.914ZM402.798 336.562C403.516 337.01 404.293 336.892 404.714 336.219C405.04 335.697 405.038 335.129 404.82 334.71C404.776 334.621 404.704 334.539 404.58 334.462C403.597 333.848 402.616 333.741 402.107 334.555C401.691 335.219 401.983 336.053 402.798 336.562V336.562Z" fill="#D0021B"/>
<path d="M409.372 332.653C409.652 332.52 410.195 332.145 410.533 331.605C411.158 330.605 410.714 329.897 410.23 329.607C409.418 329.112 408.619 329.622 408.148 330.375L407.876 330.808L407.292 330.443L407.563 330.01C407.917 329.443 408.073 328.544 407.391 328.118C406.93 327.83 406.34 327.868 405.892 328.585C405.604 329.045 405.531 329.615 405.553 329.973L404.859 329.823C404.825 329.384 404.969 328.661 405.357 328.042C406.065 326.909 407.06 326.815 407.76 327.252C408.354 327.623 408.637 328.293 408.452 329.161L408.469 329.172C409.054 328.552 409.946 328.309 410.752 328.812C411.674 329.388 412.032 330.608 411.168 331.989C410.764 332.635 410.205 333.074 409.842 333.241L409.372 332.653L409.372 332.653Z" fill="#D0021B"/>
<path d="M414.099 327.086L413.62 326.787L413.409 325.805C412.928 323.462 412.599 322.334 411.736 321.783C411.151 321.418 410.433 321.364 409.896 322.222C409.569 322.744 409.564 323.344 409.619 323.748L408.915 323.653C408.827 323.044 408.934 322.323 409.349 321.659C410.124 320.42 411.301 320.428 412.126 320.943C413.189 321.606 413.567 322.913 413.978 324.856L414.115 325.582L414.133 325.593L415.75 323.008L416.397 323.412L414.099 327.085L414.099 327.086Z" fill="#D0021B"/>
<path d="M417.497 315.114C419.455 316.336 420.082 317.737 419.285 319.011C418.582 320.136 417.051 320.239 415.135 319.067C413.203 317.861 412.66 316.366 413.391 315.197C414.15 313.984 415.663 313.969 417.497 315.114V315.114ZM415.631 318.294C417.129 319.229 418.267 319.299 418.71 318.591C419.208 317.795 418.516 316.833 417.045 315.915C415.627 315.03 414.47 314.812 413.966 315.618C413.54 316.299 414.062 317.315 415.631 318.294Z" fill="#D0021B"/>
<path d="M428.064 305.468L426.496 304.489L424.823 307.163L424.309 306.842L422.238 301.979L422.764 301.138L426.344 303.373L426.848 302.567L427.459 302.949L426.955 303.754L428.524 304.734L428.064 305.468H428.064ZM425.884 304.108L423.961 302.908C423.66 302.719 423.364 302.523 423.074 302.317L423.057 302.343C423.283 302.731 423.443 303.027 423.609 303.352L424.687 305.982L424.705 305.993L425.884 304.108H425.884Z" fill="#D0021B"/>
<path d="M429.727 300.82C430.008 300.687 430.55 300.312 430.888 299.772C431.514 298.772 431.07 298.064 430.586 297.774C429.774 297.28 428.974 297.79 428.503 298.542L428.232 298.976L427.647 298.611L427.918 298.177C428.273 297.61 428.429 296.711 427.747 296.285C427.286 295.997 426.696 296.035 426.247 296.752C425.959 297.212 425.886 297.782 425.909 298.141L425.214 297.99C425.181 297.551 425.325 296.828 425.712 296.209C426.421 295.076 427.415 294.983 428.116 295.42C428.709 295.79 428.993 296.46 428.807 297.328L428.825 297.339C429.41 296.72 430.301 296.476 431.107 296.98C432.029 297.555 432.387 298.775 431.523 300.156C431.119 300.802 430.561 301.242 430.198 301.409L429.728 300.82L429.727 300.82Z" fill="#D0021B"/>
<path d="M434.454 295.253L433.976 294.954L433.764 293.973C433.283 291.629 432.954 290.501 432.091 289.95C431.506 289.585 430.789 289.531 430.251 290.389C429.925 290.912 429.919 291.511 429.975 291.915L429.27 291.82C429.183 291.212 429.289 290.49 429.704 289.826C430.48 288.587 431.657 288.596 432.481 289.11C433.544 289.774 433.922 291.081 434.333 293.023L434.471 293.749L434.488 293.76L436.105 291.176L436.752 291.579L434.454 295.253L434.454 295.253Z" fill="#D0021B"/>
<path d="M438.402 288.941L437.924 288.643L437.712 287.661C437.231 285.318 436.902 284.189 436.039 283.639C435.455 283.273 434.737 283.219 434.2 284.078C433.873 284.6 433.868 285.2 433.923 285.604L433.219 285.509C433.131 284.9 433.237 284.179 433.653 283.515C434.428 282.276 435.605 282.284 436.429 282.799C437.492 283.462 437.87 284.769 438.281 286.712L438.419 287.438L438.437 287.449L440.054 284.864L440.7 285.268L438.403 288.941L438.402 288.941Z" fill="#D0021B"/>
<path d="M297.092 352.271C296.847 353.538 295.672 354.176 284.766 356.417H232.756C234.918 351.914 240.349 340.614 250.397 335.684C270.08 326.03 298.446 345.266 297.093 352.271H297.092Z" fill="#AF144B"/>
<path d="M289.739 237.317C287.051 239.471 289.05 241.372 284.575 248.208C280.876 253.859 278.237 254.506 276.542 258.812C274.422 264.197 276.051 269.531 276.542 271.136C280.552 284.26 297.726 289.081 303.225 290.625C309.22 292.308 321.73 295.82 334.785 289.478C344.408 284.804 349.169 277.281 351.426 273.715C354.165 269.387 359.704 260.634 356.59 255.946C354.775 253.212 351.44 254.001 339.949 250.787C338.826 250.473 335.948 249.527 330.194 247.634C303.3 238.791 294.786 233.273 289.74 237.317H289.739Z" fill="white"/>
<path d="M318.623 293.56C312.071 293.56 306.538 292.007 303.106 291.043C297.442 289.453 280.205 284.615 276.125 271.263C274.689 266.562 274.693 262.32 276.136 258.653C277.09 256.23 278.309 254.953 279.851 253.336C281.114 252.013 282.546 250.512 284.21 247.969C286.552 244.392 287.088 242.199 287.479 240.599C287.836 239.135 288.095 238.077 289.467 236.977C293.24 233.954 298.501 235.875 311.211 240.52C316.256 242.363 322.533 244.657 330.33 247.221L330.365 247.233C336.084 249.113 338.954 250.057 340.066 250.368C344.435 251.59 347.648 252.237 349.994 252.709C353.932 253.502 355.73 253.864 356.953 255.705C360.222 260.629 354.529 269.624 351.794 273.947C349.494 277.581 344.71 285.141 334.975 289.869C329.251 292.65 323.638 293.56 318.623 293.56H318.623ZM290.012 237.656C288.87 238.57 288.665 239.412 288.325 240.805C287.919 242.467 287.363 244.743 284.939 248.446C283.231 251.055 281.77 252.586 280.481 253.937C279.004 255.484 277.838 256.707 276.946 258.971C275.577 262.451 275.58 266.501 276.958 271.009C280.898 283.906 297.791 288.648 303.342 290.206C309.296 291.878 321.687 295.356 334.594 289.087C344.106 284.467 348.801 277.048 351.057 273.483C353.695 269.314 359.184 260.64 356.227 256.186C355.204 254.646 353.628 254.328 349.821 253.562C347.462 253.087 344.231 252.436 339.831 251.206C338.701 250.889 335.824 249.944 330.093 248.059L330.058 248.048C322.248 245.479 315.962 243.182 310.912 241.337C298.528 236.812 293.402 234.939 290.012 237.656L290.012 237.656Z" fill="#AF144B"/>
<path d="M302.077 242.475C301.555 242.59 289.535 245.037 283.141 237.317C282.473 236.511 279.013 232.325 279.985 227.286C281.026 221.887 286.627 218.393 291.174 217.541C296.639 216.517 298.3 219.74 303.511 218.401C308.489 217.122 308.317 213.836 312.979 212.096C318.782 209.929 324.852 212.854 332.202 216.395C339.034 219.686 343.49 223.491 346.548 226.139C350.881 229.891 355.097 233.609 358.598 239.896C360.052 242.506 362.251 246.546 362.902 252.22C363.303 255.711 362.944 258.305 362.328 262.538C361.179 270.439 360.749 274.41 358.885 276.868C355.375 281.494 352.287 278.871 344.826 284.893C341.081 287.916 339.647 290.363 335.645 291.198C335.178 291.295 330.48 292.225 329.046 290.052C327.694 288.001 329.988 284.314 331.055 282.6C332.572 280.161 333.461 280.051 336.219 276.295C338.185 273.617 337.751 273.649 338.801 272.569C341.585 269.707 343.889 270.247 346.261 267.983C347.127 267.157 349.403 264.944 349.13 261.965C348.941 259.897 347.529 257.533 345.113 256.806C342.425 255.997 339.584 257.543 338.515 259.385C337.704 260.781 338.171 261.899 337.08 263.111C336.48 263.777 335.091 264.833 333.924 264.544C331.031 263.828 333.135 255.741 328.186 251.36C327.628 250.867 326.188 250.171 323.308 248.781C322.364 248.325 319.304 246.871 314.988 245.342C312.894 244.6 311.505 244.107 309.536 243.622C306.52 242.878 303.932 242.593 302.077 242.475V242.475Z" fill="#AF144B"/>
<path d="M286.643 274.888C287.441 274.082 288.406 273.415 289.481 272.982C289.745 272.862 290.024 272.78 290.3 272.69C290.582 272.619 290.862 272.539 291.151 272.495C291.437 272.433 291.73 272.419 292.02 272.39C292.313 272.382 292.605 272.369 292.898 272.392C294.067 272.461 295.227 272.839 296.192 273.498C297.157 274.155 297.926 275.066 298.423 276.087C297.74 275.181 296.921 274.399 295.974 273.842C295.853 273.776 295.736 273.705 295.611 273.648C295.49 273.584 295.367 273.525 295.241 273.471C295.118 273.412 294.987 273.371 294.86 273.323C294.732 273.275 294.605 273.227 294.472 273.195C293.952 273.029 293.41 272.944 292.865 272.913C292.593 272.887 292.32 272.896 292.046 272.899C291.774 272.921 291.5 272.935 291.229 272.981C290.955 273.011 290.688 273.076 290.418 273.131L290.019 273.241C289.885 273.273 289.754 273.317 289.623 273.362C288.568 273.707 287.581 274.248 286.643 274.888V274.888Z" fill="#AF144B"/>
<path d="M281.993 275.435C270.648 271.103 267.454 271.738 257.318 266.55C253.942 264.822 252.942 264.058 244.12 259.385C240.199 257.308 236.725 255.612 229.775 252.22C220.981 247.928 219.397 247.312 216.864 247.348C215.414 247.368 208.404 247.468 205.674 252.793C204.134 255.798 205.299 258.903 207.646 264.967C210.604 272.61 214.735 278.303 219.159 284.319C221.117 286.982 222.095 288.313 222.889 289.192C234.521 302.063 250.613 298.434 254.162 307.534C255.512 310.996 254.498 314.89 253.875 317.279C252.836 321.269 251.362 322.024 248.137 328.743C245.929 333.343 244.824 335.644 244.407 338.774C244.236 340.062 243.504 345.551 246.129 350.524C247.986 354.044 251.293 356.867 260.474 360.269C271.551 364.373 280.826 365.483 285.436 366.001C312.116 368.998 308.568 365.804 319.004 368.58C320.44 368.962 323.435 369.822 325.603 368.294C328.014 366.595 326.624 363.06 327.612 356.257C328.852 347.712 332.274 345.944 331.915 338.774C331.722 334.904 329.871 332.217 330.481 331.895C331.127 331.555 332.786 334.66 336.793 338.774C339.533 341.587 340.266 341.684 346.835 347.372C350.198 350.284 350.769 350.92 351.999 351.958C358.204 357.191 367.601 359.053 386.142 362.562C388.709 363.048 391.01 363.45 393.314 362.275C397.517 360.133 401.13 354.149 399.053 349.092C397.888 346.256 395.279 344.807 394.175 344.219C373.805 333.379 367.371 330.156 361.467 326.163C359.777 325.02 354.889 320.816 345.113 312.407C335.015 303.72 334.725 303.112 331.341 300.656C324.886 295.971 322.014 295.336 308.102 288.619C288.4 279.105 291.21 278.954 281.992 275.435H281.993Z" fill="#FF8600"/>
<path d="M322.521 369.6C321.134 369.6 319.831 369.251 319.014 369.033L318.892 369.001C313.96 367.689 312.234 367.726 308.797 367.798C305.028 367.879 299.334 368 285.387 366.433C281.296 365.973 271.715 364.897 260.323 360.677C250.699 357.111 247.535 354.121 245.744 350.727C244.517 348.402 243.214 344.432 243.976 338.717C244.402 335.518 245.519 333.191 247.745 328.554C249.15 325.628 250.217 323.838 251.074 322.4C252.162 320.577 252.88 319.372 253.454 317.169C254.053 314.87 255.056 311.023 253.757 307.692C252.124 303.505 247.69 302.132 242.077 300.394C236.107 298.545 228.676 296.244 222.566 289.483C221.761 288.593 220.784 287.263 218.836 284.615L218.808 284.577C214.615 278.874 210.279 272.978 207.239 265.124C204.916 259.121 203.636 255.814 205.287 252.595C207.124 249.01 211.233 246.993 216.857 246.913C219.452 246.876 221.041 247.473 229.966 251.829C236.91 255.218 240.395 256.919 244.324 259.001C249.271 261.621 251.766 263.017 253.589 264.036C255.011 264.832 256.04 265.407 257.517 266.163C263.495 269.222 267.114 270.264 271.304 271.471C274.217 272.31 277.519 273.261 282.149 275.029C286.784 276.799 288.396 277.721 291.323 279.396C294.159 281.019 298.444 283.472 308.292 288.227C312.321 290.173 315.446 291.618 317.957 292.779C324.152 295.644 326.979 296.952 331.598 300.304C333.652 301.794 334.544 302.583 337.193 304.922C338.96 306.483 341.381 308.622 345.398 312.077L345.413 312.09C355.154 320.469 360.043 324.675 361.712 325.803C366.541 329.069 371.861 331.889 384.714 338.703C387.542 340.202 390.738 341.897 394.381 343.835C395.325 344.338 398.2 345.868 399.456 348.926C401.599 354.144 398.044 360.353 393.513 362.663C391.029 363.929 388.503 363.452 386.061 362.989C368.056 359.581 358.138 357.704 351.719 352.29C351.191 351.844 350.789 351.478 350.233 350.97C349.494 350.296 348.482 349.373 346.55 347.7C343.612 345.156 341.837 343.727 340.541 342.684C338.91 341.371 338.012 340.649 336.481 339.077C334.579 337.124 333.212 335.41 332.214 334.158C331.718 333.536 331.209 332.898 330.869 332.554C330.944 332.813 331.061 333.148 331.169 333.459C331.595 334.681 332.239 336.528 332.351 338.752C332.551 342.775 331.594 345.13 330.486 347.857C329.6 350.036 328.596 352.506 328.043 356.319C327.674 358.861 327.64 360.962 327.613 362.651C327.567 365.549 327.536 367.465 325.855 368.649C324.834 369.369 323.65 369.6 322.521 369.6L322.521 369.6ZM310.756 366.9C313.11 366.9 315.119 367.097 319.117 368.16L319.239 368.193C320.696 368.582 323.41 369.307 325.352 367.938C326.672 367.008 326.699 365.363 326.742 362.636C326.77 360.923 326.804 358.791 327.181 356.194C327.75 352.276 328.774 349.754 329.679 347.529C330.749 344.898 331.672 342.626 331.481 338.796C331.376 336.696 330.756 334.92 330.346 333.745C329.944 332.59 329.678 331.827 330.278 331.511C330.937 331.163 331.511 331.88 332.895 333.616C333.882 334.854 335.233 336.549 337.105 338.471C338.599 340.004 339.483 340.715 341.087 342.007C342.388 343.054 344.17 344.489 347.12 347.043C349.061 348.723 350.077 349.651 350.819 350.328C351.368 350.829 351.765 351.19 352.28 351.625C358.272 356.679 367.016 358.499 386.223 362.134C388.627 362.589 390.898 363.019 393.117 361.888C397.301 359.754 400.557 353.899 398.65 349.257C397.513 346.488 394.847 345.069 393.971 344.603C390.329 342.665 387.133 340.97 384.305 339.471C371.423 332.642 366.091 329.815 361.223 326.523C359.513 325.367 354.611 321.15 344.844 312.749L344.829 312.736C340.808 309.277 338.385 307.136 336.616 305.574C333.991 303.255 333.106 302.473 331.086 301.007C326.536 297.706 323.733 296.409 317.59 293.568C315.077 292.406 311.948 290.959 307.913 289.01C298.038 284.242 293.737 281.78 290.89 280.151C288.001 278.498 286.41 277.587 281.838 275.841C277.242 274.086 273.96 273.141 271.063 272.307C266.829 271.088 263.173 270.035 257.12 266.937C255.628 266.174 254.594 265.595 253.163 264.795C251.345 263.778 248.855 262.385 243.917 259.769C240 257.694 236.519 255.996 229.584 252.611C220.824 248.335 219.279 247.753 216.87 247.783C211.584 247.858 207.746 249.707 206.062 252.991C204.649 255.748 205.651 258.606 208.052 264.811C211.05 272.556 215.351 278.405 219.51 284.062L219.539 284.1C221.469 286.725 222.438 288.043 223.212 288.9C229.163 295.484 236.161 297.651 242.335 299.563C247.941 301.299 252.783 302.798 254.568 307.377C255.969 310.969 254.923 314.988 254.297 317.388C253.692 319.711 252.948 320.958 251.823 322.845C250.974 324.269 249.918 326.039 248.53 328.931C246.344 333.484 245.247 335.769 244.839 338.831C244.108 344.319 245.346 348.109 246.514 350.322C248.212 353.538 251.261 356.392 260.626 359.861C271.918 364.045 281.425 365.113 285.485 365.569C299.373 367.129 305.033 367.009 308.779 366.929C309.491 366.914 310.136 366.9 310.757 366.9L310.756 366.9Z" fill="white"/>
<path d="M247.693 301.921C248.694 302.018 249.672 302.181 250.645 302.358C251.618 302.537 252.583 302.737 253.544 302.945L256.421 303.58C256.9 303.684 257.379 303.785 257.86 303.874C258.343 303.965 258.822 304.041 259.325 304.044C258.853 304.233 258.333 304.274 257.83 304.301C257.324 304.319 256.82 304.296 256.32 304.256C255.319 304.171 254.333 304.006 253.36 303.795C252.386 303.583 251.425 303.323 250.478 303.019C249.532 302.71 248.596 302.364 247.693 301.921H247.693Z" fill="white"/>
<path d="M195.774 238.486C202.406 232.253 206.357 231.783 208.745 232.525C211.688 233.44 213.785 236.668 215.231 235.894C216.51 235.21 215.459 232.372 217.306 230.97C218.284 230.228 219.869 230.045 220.679 230.711C221.713 231.561 221.132 233.503 220.679 236.671C219.876 242.29 220.785 242.853 220.16 244.964C218.621 250.16 210.413 256.386 203.038 253.256C197.865 251.061 194.661 244.925 195.774 238.485L195.774 238.486Z" fill="white"/>
<path d="M207.206 254.527C205.701 254.527 204.236 254.238 202.868 253.657C197.384 251.33 194.221 244.919 195.345 238.412L195.37 238.269L195.476 238.169C200.9 233.071 205.409 231.032 208.875 232.11C210.3 232.553 211.494 233.477 212.548 234.292C213.591 235.1 214.492 235.796 215.025 235.511C215.413 235.304 215.496 234.648 215.592 233.889C215.728 232.822 215.896 231.494 217.043 230.624C218.102 229.821 219.926 229.529 220.955 230.376C221.991 231.227 221.741 232.771 221.362 235.108C221.279 235.62 221.193 236.151 221.11 236.733C220.675 239.774 220.748 241.305 220.802 242.423C220.848 243.376 220.881 244.064 220.577 245.088C219.654 248.203 216.559 251.463 212.875 253.199C210.999 254.082 209.072 254.527 207.206 254.527H207.206ZM196.179 238.702C195.193 244.766 198.133 250.703 203.208 252.856C206.84 254.398 210.268 253.465 212.504 252.412C215.977 250.775 218.886 247.733 219.743 244.841C220.004 243.959 219.975 243.364 219.932 242.465C219.877 241.312 219.801 239.733 220.248 236.61C220.333 236.02 220.423 235.461 220.503 234.968C220.833 232.928 221.052 231.581 220.402 231.047C219.78 230.535 218.43 230.664 217.57 231.317C216.715 231.966 216.583 232.999 216.457 233.998C216.335 234.954 216.221 235.858 215.437 236.277C214.406 236.829 213.297 235.972 212.015 234.98C211.02 234.21 209.892 233.337 208.616 232.94C205.493 231.97 201.309 233.908 196.179 238.702L196.179 238.702Z" fill="#AF144B"/>
<path d="M396.62 343.945C397.023 343.611 401.492 339.963 403.099 341.163C404.004 341.839 404.039 344.081 403.099 345.05C402.618 345.545 401.93 345.62 401.946 345.684C401.967 345.771 403.946 344.798 405.924 344.993C407.711 345.168 409.603 346.306 410.593 347.987C412.596 351.386 410.003 355.462 409.556 356.165C407.168 359.918 403.075 360.72 402.465 360.829C397.894 361.649 391.776 359.588 390.473 355.128C389.04 350.219 394.421 345.765 396.62 343.945V343.945Z" fill="white"/>
<path d="M400.429 361.439C396.035 361.439 391.214 359.217 390.055 355.25C388.542 350.066 394.008 345.542 396.342 343.61C397.539 342.619 401.585 339.489 403.36 340.815C403.836 341.171 404.147 341.853 404.213 342.688C404.261 343.286 404.181 344.047 403.868 344.692C404.506 344.565 405.235 344.488 405.966 344.56C407.974 344.758 409.937 346.016 410.969 347.767C412.898 351.042 410.88 354.894 409.923 356.398C407.567 360.101 403.678 361.054 402.542 361.258C401.861 361.38 401.151 361.44 400.43 361.44L400.429 361.439ZM396.898 344.279C394.695 346.103 389.538 350.372 390.892 355.006C392.111 359.182 397.928 361.201 402.388 360.401C403.134 360.267 406.967 359.424 409.188 355.931C410.059 354.562 411.904 351.069 410.218 348.208C409.337 346.712 407.594 345.594 405.881 345.426C404.489 345.289 403.049 345.786 402.434 345.999C402.068 346.125 401.931 346.172 401.741 346.069L401.572 345.978L401.523 345.788C401.422 345.377 401.836 345.24 401.972 345.195C402.181 345.127 402.53 345.012 402.786 344.748C403.189 344.333 403.409 343.551 403.345 342.757C403.3 342.189 403.106 341.711 402.838 341.512C401.836 340.763 398.737 342.757 396.898 344.28L396.898 344.279Z" fill="#AF144B"/>
<path d="M102.524 33.8917C101.08 33.8917 99.9053 32.7184 99.9053 31.2762C99.9053 29.8339 101.08 28.6607 102.524 28.6607C103.967 28.6607 105.142 29.8339 105.142 31.2762C105.142 32.7184 103.967 33.8917 102.524 33.8917ZM102.524 29.3566C101.464 29.3566 100.602 30.2177 100.602 31.2762C100.602 32.3346 101.464 33.1958 102.524 33.1958C103.583 33.1958 104.445 32.3346 104.445 31.2762C104.445 30.2177 103.583 29.3566 102.524 29.3566Z" fill="#AF144B"/>
<path d="M379.741 228.462C378.297 228.462 377.123 227.289 377.123 225.847C377.123 224.405 378.297 223.232 379.741 223.232C381.185 223.232 382.359 224.405 382.359 225.847C382.359 227.289 381.185 228.462 379.741 228.462ZM379.741 223.928C378.681 223.928 377.819 224.789 377.819 225.847C377.819 226.906 378.681 227.767 379.741 227.767C380.8 227.767 381.663 226.906 381.663 225.847C381.663 224.789 380.8 223.928 379.741 223.928Z" fill="#AF144B"/>
<path d="M89.3255 302.48C89.6773 300.005 90.2529 300.005 90.6047 302.48C90.9565 304.954 93.2714 307.267 95.749 307.618C98.2266 307.97 98.2266 308.545 95.749 308.896C93.2714 309.248 90.9565 311.56 90.6047 314.035C90.2529 316.51 89.6773 316.51 89.3255 314.035C88.9737 311.56 86.6587 309.248 84.1811 308.896C81.7035 308.545 81.7035 307.97 84.1811 307.618C86.6587 307.267 88.9737 304.954 89.3255 302.48Z" fill="#AF144B"/>
<path d="M441.656 25.3735C442.008 22.8985 442.584 22.8985 442.935 25.3735C443.287 27.8484 445.602 30.1608 448.08 30.5123C450.557 30.8637 450.557 31.4387 448.08 31.7901C445.602 32.1415 443.287 34.4539 442.935 36.9289C442.584 39.4038 442.008 39.4038 441.656 36.9289C441.304 34.4539 438.989 32.1415 436.512 31.7901C434.034 31.4387 434.034 30.8637 436.512 30.5123C438.989 30.1608 441.304 27.8484 441.656 25.3735Z" fill="#AF144B"/>
</g>
<defs>
<clipPath id="clip0_0_3">
<rect width="540" height="451" fill="white"/>
</clipPath>
</defs>
</svg>
